<svg id="visual" viewBox="0 0 960 540" width="960" height="540" xmlns="http://www.w3.org/2000/svg" xmlns:xlink="http://www.w3.org/1999/xlink" version="1.1"><rect x="0" y="0" width="960" height="540" fill="#49c5b6"></rect><defs><linearGradient id="grad1_0" x1="43.8%" y1="0%" x2="100%" y2="100%"><stop offset="14.444444444444446%" stop-color="#b4ebe5" stop-opacity="1"></stop><stop offset="85.55555555555554%" stop-color="#b4ebe5" stop-opacity="1"></stop></linearGradient></defs><defs><linearGradient id="grad1_1" x1="43.8%" y1="0%" x2="100%" y2="100%"><stop offset="14.444444444444446%" stop-color="#b4ebe5" stop-opacity="1"></stop><stop offset="85.55555555555554%" stop-color="#49c5b6" stop-opacity="1"></stop></linearGradient></defs><defs><linearGradient id="grad2_0" x1="0%" y1="0%" x2="56.3%" y2="100%"><stop offset="14.444444444444446%" stop-color="#b4ebe5" stop-opacity="1"></stop><stop offset="85.55555555555554%" stop-color="#b4ebe5" stop-opacity="1"></stop></linearGradient></defs><defs><linearGradient id="grad2_1" x1="0%" y1="0%" x2="56.3%" y2="100%"><stop offset="14.444444444444446%" stop-color="#49c5b6" stop-opacity="1"></stop><stop offset="85.55555555555554%" stop-color="#b4ebe5" stop-opacity="1"></stop></linearGradient></defs><g transform="translate(960, 0)"><path d="M0 243C-34.7 223.5 -69.3 204 -107.5 186.2C-145.7 168.4 -187.3 152.3 -210.4 121.5C-233.6 90.7 -238.3 45.4 -243 0L0 0Z" fill="#83d8ce"></path><path d="M0 121.5C-17.3 111.8 -34.7 102 -53.7 93.1C-72.8 84.2 -93.6 76.1 -105.2 60.8C-116.8 45.4 -119.2 22.7 -121.5 0L0 0Z" fill="#b4ebe5"></path></g><g transform="translate(0, 540)"><path d="M0 -243C47.5 -239.5 94.9 -236 121.5 -210.4C148.1 -184.9 153.8 -137.3 170.6 -98.5C187.4 -59.7 215.2 -29.9 243 0L0 0Z" fill="#83d8ce"></path><path d="M0 -121.5C23.7 -119.8 47.5 -118 60.7 -105.2C74 -92.4 76.9 -68.6 85.3 -49.3C93.7 -29.9 107.6 -14.9 121.5 0L0 0Z" fill="#b4ebe5"></path></g></svg>