<svg id="visual" viewBox="0 0 960 540" width="960" height="540" xmlns="http://www.w3.org/2000/svg" xmlns:xlink="http://www.w3.org/1999/xlink" version="1.1"><g><g transform="translate(820 44)"><path d="M0 -115.5L50.1 -104L90.3 -72L112.6 -25.7L112.6 25.7L90.3 72L50.1 104L0 115.5L-50.1 104L-90.3 72L-112.6 25.7L-112.6 -25.7L-90.3 -72L-50.1 -104Z" fill="none" stroke="#FFF" stroke-width="2"></path></g><g transform="translate(71 515)"><path d="M0 -104L45.1 -93.7L81.3 -64.8L101.4 -23.1L101.4 23.1L81.3 64.8L45.1 93.7L0 104L-45.1 93.7L-81.3 64.8L-101.4 23.1L-101.4 -23.1L-81.3 -64.8L-45.1 -93.7Z" fill="none" stroke="#FFF" stroke-width="2"></path></g><g transform="translate(956 236)"><path d="M0 -45L19.5 -40.5L35.2 -28.1L43.9 -10L43.9 10L35.2 28.1L19.5 40.5L0 45L-19.5 40.5L-35.2 28.1L-43.9 10L-43.9 -10L-35.2 -28.1L-19.5 -40.5Z" stroke="#FFF" fill="none" stroke-width="2"></path></g></g></svg>